<?xml version="1.0" standalone="no"?>
<!DOCTYPE svg PUBLIC "-//W3C//DTD SVG 20010904//EN"
 "http://www.w3.org/TR/2001/REC-SVG-20010904/DTD/svg10.dtd">
<svg version="1.0" xmlns="http://www.w3.org/2000/svg"
 width="64.000000pt" height="64.000000pt" viewBox="0 0 64.000000 64.000000"
 preserveAspectRatio="xMidYMid meet">

<g transform="translate(0.000000,64.000000) scale(0.100000,-0.100000)"
fill="#000000" stroke="none">
<path d="M560 606 c-27 -33 18 -72 48 -42 13 13 14 20 6 34 -15 23 -38 26 -54
8z m40 -21 c0 -8 -7 -15 -15 -15 -8 0 -15 7 -15 15 0 8 7 15 15 15 8 0 15 -7
15 -15z"/>
<path d="M215 596 c-57 -13 -195 -64 -195 -72 0 -9 33 -84 36 -84 3 0 35 15
72 34 172 87 277 94 411 31 41 -20 76 -33 80 -30 9 10 -51 53 -126 91 -60 31
-86 38 -145 40 -40 2 -100 -3 -133 -10z m205 -21 c35 -13 34 -13 -20 -8 -68 7
-148 -13 -254 -61 -79 -36 -95 -36 -96 0 0 16 128 65 200 77 52 9 136 5 170
-8z"/>
<path d="M490 476 c-27 -33 18 -72 48 -42 13 13 14 20 6 34 -15 23 -38 26 -54
8z m40 -21 c0 -8 -7 -15 -15 -15 -8 0 -15 7 -15 15 0 8 7 15 15 15 8 0 15 -7
15 -15z"/>
<path d="M231 413 c-57 -20 -161 -119 -161 -153 0 -16 19 -43 58 -80 123 -120
261 -120 384 0 39 37 58 64 58 80 0 16 -19 43 -58 80 -87 85 -179 109 -281 73z
m184 -27 c28 -12 56 -30 63 -39 11 -13 4 -12 -48 4 -34 10 -83 19 -110 19 -27
0 -76 -9 -110 -19 -52 -16 -59 -17 -48 -4 23 28 111 63 158 63 26 0 66 -10 95
-24z m-25 -56 c70 -70 2 -190 -95 -166 -73 18 -98 113 -45 166 28 28 112 28
140 0z m-182 -30 c-15 -44 -2 -92 33 -126 44 -42 114 -42 158 0 35 34 48 82
33 126 -13 37 -5 38 57 7 71 -35 73 -49 21 -103 -55 -57 -130 -94 -190 -94
-60 0 -135 37 -190 94 -52 54 -50 68 21 103 62 31 70 30 57 -7z"/>
<path d="M280 300 c-11 -11 -20 -29 -20 -40 0 -26 34 -60 60 -60 26 0 60 34
60 60 0 11 -9 29 -20 40 -11 11 -29 20 -40 20 -11 0 -29 -9 -40 -20z m70 -15
c15 -18 10 -45 -12 -59 -35 -22 -74 27 -48 59 16 19 44 19 60 0z"/>
<path d="M206 64 c-8 -21 -8 -24 3 -24 12 0 22 28 12 35 -5 3 -12 -2 -15 -11z"/>
<path d="M417 73 c-7 -11 10 -40 18 -31 4 4 3 14 -3 24 -5 9 -12 12 -15 7z"/>
<path d="M256 44 c-4 -10 -1 -14 6 -12 15 5 23 28 10 28 -5 0 -13 -7 -16 -16z"/>
<path d="M310 40 c0 -11 5 -20 10 -20 6 0 10 9 10 20 0 11 -4 20 -10 20 -5 0
-10 -9 -10 -20z"/>
<path d="M362 48 c2 -6 10 -14 16 -16 7 -2 10 2 6 12 -7 18 -28 22 -22 4z"/>
</g>
</svg>
